inDegrees=no
num_controls=7
num_derivatives=13
num_iterations=168
num_multipliers=7
num_parameters=0
num_slacks=7
num_states=26
objective=5.984479
objective_accelerations=0.712148
objective_balance=0.009591
objective_effort=0.509618
objective_height=4.652979
objective_ligament=0.100143
solver_duration=1393.557684
status=Solve_Succeeded
success=true
DataType=double
version=3
OpenSimVersion=4.4-2022-07-23-0e9fedc
endheader
time	/jointset/ground_pelvis/pelvis_tilt/value	/jointset/ground_pelvis/pelvis_tx/value	/jointset/ground_pelvis/pelvis_ty/value	/jointset/hip_r/hip_flexion_r/value	/jointset/hip_r/hip_adduction_r/value	/jointset/hip_r/hip_rotation_r/value	/jointset/back/lumbar_extension/value	/jointset/patellofemoral_r/patellar_flexion_r/value	/jointset/knee_r/knee_flexion_r/value	/jointset/knee_r/knee_adduction_r/value	/jointset/knee_r/knee_rotation_r/value	/jointset/ankle_r/ankle_angle_r/value	/jointset/subtalar_r/subtalar_angle_r/value	/jointset/ground_pelvis/pelvis_tilt/speed	/jointset/ground_pelvis/pelvis_tx/speed	/jointset/ground_pelvis/pelvis_ty/speed	/jointset/hip_r/hip_flexion_r/speed	/jointset/hip_r/hip_adduction_r/speed	/jointset/hip_r/hip_rotation_r/speed	/jointset/back/lumbar_extension/speed	/jointset/patellofemoral_r/patellar_flexion_r/speed	/jointset/knee_r/knee_flexion_r/speed	/jointset/knee_r/knee_adduction_r/speed	/jointset/knee_r/knee_rotation_r/speed	/jointset/ankle_r/ankle_angle_r/speed	/jointset/subtalar_r/subtalar_angle_r/speed	/forceset/tau_hip_flexion_r	/forceset/tau_hip_adduction_r	/forceset/tau_hip_rotation_r	/forceset/tau_knee_flexion_r	/forceset/tau_ankle_angle_r	/forceset/tau_subtalar_angle_r	/forceset/tau_lumbar_extension	lambda_cid13_p0	lambda_cid14_p0	lambda_cid14_p1	lambda_cid14_p2	lambda_cid14_p3	lambda_cid14_p4	lambda_cid14_p5	/jointset/ground_pelvis/pelvis_tilt/accel	/jointset/ground_pelvis/pelvis_tx/accel	/jointset/ground_pelvis/pelvis_ty/accel	/jointset/hip_r/hip_flexion_r/accel	/jointset/hip_r/hip_adduction_r/accel	/jointset/hip_r/hip_rotation_r/accel	/jointset/back/lumbar_extension/accel	/jointset/patellofemoral_r/patellar_flexion_r/accel	/jointset/knee_r/knee_flexion_r/accel	/jointset/knee_r/knee_adduction_r/accel	/jointset/knee_r/knee_rotation_r/accel	/jointset/ankle_r/ankle_angle_r/accel	/jointset/subtalar_r/subtalar_angle_r/accel	gamma_cid13_p0	gamma_cid14_p0	gamma_cid14_p1	gamma_cid14_p2	gamma_cid14_p3	gamma_cid14_p4	gamma_cid14_p5
0	-0.005403420729892102	0.1307657303066825	0.9335842836708135	0.1934208783645156	-0.2258461294687277	-0.2410044866068071	-0.2903791543005566	0.2311793314021721	0.2311793314021609	0.1274486171230869	0.1712955950628535	0.08934340440958972	0.06675614515471061	0	0	0	0	0	0	0	0	0	0	0	0	0	0.1136715545266346	-0.07105829132743284	0.002330408447180851	-0.2438264471949193	0.1148779080276933	-0.07578374457330947	-0.03507084975765159	-29.85842561537708	-8.51243907907703	-29.34203700178501	-0.6813762284971696	5.316057845244876	-604.1391744354131	53.20403529437677	-2.232595955028221	-2.064822725615027	-0.9679826211533091	11.04842911296008	-0.4531220933129823	2.759780007112509	-6.657036544715554	11.13019212781517	11.1301921278156	-1.894531497417468	0.3925646664763526	2.81680477354346	0.2246006524084895	3.79181166131943e-08	1.476615774815717e-08	-3.288610704434515e-07	1.686385605232074e-07	1.62426571870839e-08	1.500892736932515e-07	-2.336228732167425e-07
0.01	-0.005508236823295693	0.130663853525511	0.9335372254664828	0.193958414008754	-0.2258674802325739	-0.2408650631435959	-0.2907136759555471	0.2317246456543438	0.2317246456543594	0.1273543837259451	0.1713102061901993	0.08948137369533392	0.06676812652046475	-0.02088605783928223	-0.02026655738814196	-0.009384658286622485	0.1069991971352949	-0.004271890870791681	0.02779807620005242	-0.06643603275023495	0.1085345857338049	0.1085345857338051	-0.01868731245629355	0.002865705381352006	0.02746093062449366	0.002356218953604911	0.1089666956300932	-0.07539044983077522	0.002756076934388881	-0.2394237195387514	0.1083381634522932	-0.0696986383559124	-0.03082051343200914	-29.86437590675382	-10.35135727136057	-26.85621417983597	-1.266203616345881	5.586136606367758	-605.8900149805515	57.96121471419439	-2.005040090186496	-1.991249170410496	-0.9196300276062432	10.44947383233146	-0.4145034553383728	2.776867773526578	-6.566641902850127	10.63584450673784	10.63584450673751	-1.831963773000676	0.2251314727843214	2.690804590327382	0.2350926520922945	5.310271338668974e-08	-7.278376561013004e-09	-4.55415776475888e-07	1.831055350219805e-07	4.463002358577515e-08	-5.591893196408779e-09	-2.888408163109253e-07
0.02	-0.005819599373448131	0.130362575785458	0.9333971361602479	0.1955507033880386	-0.2259316060793788	-0.2404502496489688	-0.2916985089905759	0.2333394563060195	0.2333394563060081	0.1270780506736807	0.1713517859709822	0.08988996576400636	0.06680246210280676	-0.04130929135089924	-0.03988019177632413	-0.01860622038079058	0.2109507470112517	-0.008555016596637304	0.05507800628311289	-0.1300622760073561	0.213899279890597	0.2138992798905952	-0.03641993104321606	0.00539373071550437	0.05412455658598942	0.004470843317445578	0.1042618367334382	-0.07972260833411567	0.003181745421003278	-0.2350209918825734	0.1017984188768962	-0.06361353213850407	-0.02657017710645822	-29.88163510172069	-12.10409786797902	-24.37132644621481	-1.832576338914929	5.882231989830439	-606.2756315514729	62.47624945863392	-2.140031089495031	-1.934238125623229	-0.935363382662421	10.43889966109249	-0.4553690643237638	2.656150783714109	-6.095078646092746	10.49621381241264	10.49621381241263	-1.703592723543272	0.3250286570364488	2.657343840943697	0.1762817344555943	6.828731016018517e-08	-2.932291087018317e-08	-5.819704825083243e-07	1.975725095207536e-07	7.30173899844664e-08	-1.612730600860691e-07	-3.440587594051081e-07
0.03	-0.006333234563371565	0.1298684945818174	0.9331652872169582	0.1981678678748773	-0.2260387491871971	-0.2397657973688366	-0.2933053917008008	0.2359926208846779	0.2359926208846871	0.126629510590288	0.1714175747015262	0.09056141317025337	0.06685664113349653	-0.06132712530324321	-0.05881920821032387	-0.02776367576527603	0.3119713751226921	-0.01287320471665644	0.08170508272542901	-0.190882546345748	0.3162384659497877	0.3162384659497836	-0.05311902174117489	0.007721364046979035	0.0800540439291471	0.006333959219849567	0.09941356733932069	-0.07614946912418928	0.003543404804565484	-0.2316286829080737	0.09847567558291793	-0.06387424946283526	-0.02233981584436011	-29.90925740969713	-13.16695113341918	-24.66200053118071	-1.796120041876701	5.781951368116713	-606.5367024137265	61.04859832950901	-1.919064268621502	-1.856192573421418	-0.9059856231589853	9.857026403956789	-0.4200258878625836	2.64993269728994	-6.010743273795531	10.02848179956881	10.02848179956839	-1.627781385777739	0.1802786977715634	2.544127540648649	0.1866086040512665	7.334202105368476e-08	-4.689436255203638e-08	-6.300801811770408e-07	1.806774950254584e-07	9.02783842981834e-08	-2.822591635315027e-07	-3.493622053277746e-07
0.04	-0.007044329036914339	0.1291885313796093	0.9328418539184604	0.201779915046387	-0.2261890706166002	-0.2388182849997246	-0.2955075255236262	0.2396543194833513	0.2396543194833413	0.1260190367714595	0.1715053693705712	0.09148883072185893	0.06692850774039473	-0.08080114807629273	-0.07705659148981862	-0.03692309142242182	0.4099272839455795	-0.01719068091755276	0.1076900240797366	-0.2491124985274448	0.4156060838848393	0.4156060838848342	-0.06880667815337149	0.009794918441208353	0.1053185856581789	0.008008358558996743	0.09456529794516072	-0.07257632991424685	0.003905064187608649	-0.2282363739335411	0.09515293228895373	-0.06413496678713533	-0.01810945458230443	-29.94581601752276	-14.15141354682097	-24.95491954756678	-1.741061792070984	5.696008568013786	-605.5621196761558	59.40132849842469	-2.03126885363598	-1.79391149472242	-0.9357554371944778	9.825955803381946	-0.4552266804991735	2.527723766112369	-5.577015014753675	9.901900187584864	9.901900187585079	-1.501305866390893	0.2742128695874144	2.52435471811831	0.138538421804206	7.818786832079265e-08	-6.437358572610986e-08	-6.765724570135156e-07	1.63135841581832e-07	1.073099688781896e-07	-4.025299048440656e-07	-3.536364863603068e-07
0.05	-0.007948055885424759	0.1283296878076502	0.9324265151274963	0.2063570608963139	-0.2263826637237819	-0.2376145476400728	-0.2982785142322238	0.2442951593717892	0.2442951593717884	0.1252570730708215	0.1716130795009105	0.09266554157104621	0.06701604434824247	-0.09985705468543589	-0.09459472382085436	-0.04616458806207249	0.504997003964602	-0.02151419231771573	0.1329441434959799	-0.304665576177382	0.5120588298670797	0.5120588298670893	-0.08342281455388043	0.0116927856624406	0.1299067600692182	0.00948234502903816	0.08933022301106988	-0.07101429460978427	0.004355178800063448	-0.2252611103902219	0.09157380787357629	-0.06245641952012518	-0.01368679315463757	-29.98970610710859	-15.1210893815274	-24.37962146684117	-1.851157348395874	5.545312413269039	-604.76933402657	59.55053228391542	-1.829670555181918	-1.716132641088011	-0.9214164489362296	9.27174559671985	-0.4189058521866802	2.507309617728413	-5.481504087781176	9.441486536125339	9.441486536127268	-1.417371090227108	0.1394663426645363	2.408533533866871	0.1492504694595372	7.713327096862739e-08	-7.799821423752799e-08	-6.780695712373715e-07	1.284395046162449e-07	1.174116349370125e-07	-4.907272150037321e-07	-3.306275233374614e-07
